# xmcd
#
# Track frame offsets:
#	150
#	17982
#	34217
#	53579
#	72599
#	86818
#	103292
#	118605
#	131387
#	150149
#	167069
#	194354
#
# Disc length: 2852 seconds
#
# Revision: 0
# Processed by: cddbd v1.5.2PL0 Copyright (c) Steve Scherf et al.
# Submitted via: EasyCDDAExtractor 2011.3.0.0
#
DISCID=9f0b220c
DTITLE=Sol Pereyra - Comunmixta
DYEAR=2012
DGENRE=Pop
TTITLE0=Comunmixta
TTITLE1=Amorcito
TTITLE2=Clase Media
TTITLE3=Final
TTITLE4=Gusano y Mariposa
TTITLE5=Mandolin
TTITLE6=Hilo de Sol
TTITLE7=La Tormenta
TTITLE8=Fuera de mi Camino
TTITLE9=Perdedores
TTITLE10=Lanza Perfume
TTITLE11=Tita
EXTD=
EXTT0=
EXTT1=
EXTT2=
EXTT3=
EXTT4=
EXTT5=
EXTT6=
EXTT7=
EXTT8=
EXTT9=
EXTT10=
EXTT11=
PLAYORDER=
